<svg width="15" height="15" viewBox="0 0 15 15" fill="none" xmlns="http://www.w3.org/2000/svg">
<path d="M14.0422 7.74359C14.0149 7.68897 13.9875 7.63435 13.9601 7.60705L12.455 6.10507C12.2909 5.94121 12.0172 5.94121 11.8256 6.10507C11.6615 6.26892 11.6615 6.54201 11.8256 6.73317L12.5645 7.4705H7.50194V2.41839L8.29553 3.21034C8.37763 3.29227 8.48709 3.34689 8.59655 3.34689C8.70601 3.34689 8.81547 3.29227 8.89756 3.21034C9.06176 3.04649 9.06176 2.7734 8.89756 2.58224L7.36511 1.05295C7.33775 1.02565 7.28302 0.971028 7.22829 0.971028C7.11882 0.91641 7.00936 0.91641 6.8999 0.943719C6.84517 0.971028 6.79044 0.998337 6.76308 1.02565L5.25799 2.52762C5.0938 2.69148 5.0938 2.96456 5.25799 3.15573C5.34008 3.23765 5.44954 3.29227 5.55901 3.29227C5.66847 3.29227 5.77793 3.23765 5.86002 3.15573L6.62625 2.41839V7.4705H1.56368L2.30254 6.73317C2.46673 6.56931 2.46673 6.29623 2.30254 6.10507C2.13835 5.94121 1.8647 5.94121 1.67314 6.10507L0.168055 7.60705C0.113324 7.68897 0.0585938 7.79821 0.0585938 7.90744C0.0585938 8.01668 0.113324 8.12591 0.19542 8.20784L1.72787 9.73713C1.80997 9.81905 1.91943 9.87367 2.02889 9.87367C2.13835 9.87367 2.24781 9.81905 2.32991 9.73713C2.4941 9.57327 2.4941 9.30019 2.32991 9.10903L1.53632 8.31707H6.62625V13.3692L5.88739 12.6592C5.7232 12.4953 5.44954 12.4953 5.25799 12.6592C5.0938 12.823 5.0938 13.0961 5.25799 13.2873L6.76308 14.7892C6.84517 14.8712 6.95463 14.9258 7.06409 14.9258C7.17355 14.9258 7.28302 14.8712 7.36511 14.7892L8.89756 13.2599C9.06176 13.0961 9.06176 12.823 8.89756 12.6318C8.73337 12.468 8.45972 12.468 8.26816 12.6318L7.47457 13.4238V8.34438H12.5371L11.7435 9.13633C11.5794 9.30019 11.5794 9.57327 11.7435 9.76443C11.8256 9.84636 11.9351 9.90098 12.0446 9.90098C12.154 9.90098 12.2635 9.84636 12.3456 9.76443L13.878 8.23515C13.9054 8.20784 13.9601 8.15322 13.9601 8.0986C13.9875 8.04398 13.9875 7.98937 13.9875 7.93475C14.0696 7.85282 14.0696 7.79821 14.0422 7.74359Z" fill="#414BFF"/>
</svg>
