<svg width="33" height="35" viewBox="0 0 33 35" fill="none" xmlns="http://www.w3.org/2000/svg">
<path d="M20.1258 27.0096C20.1034 24.0258 19.0155 21.1594 17.0564 18.9332C14.7094 16.3005 11.356 14.7926 7.82969 14.7961C7.40344 14.7965 7.05504 15.1456 7.05546 15.5719L7.06693 27.0614C7.06736 27.4876 7.41646 27.836 7.84271 27.8356L19.3322 27.8241C19.7584 27.8237 20.1069 27.4746 20.1064 27.0483L20.1064 27.0096L20.1258 27.0096ZM8.61617 26.2848L8.60629 16.3841C11.3965 16.5751 13.9941 17.8706 15.8562 19.9806C17.408 21.7422 18.3402 23.9501 18.5169 26.2943L8.61619 26.3042L8.61617 26.2848Z" fill="white"/>
<path d="M1.26562 0.707031V31.3806H31.1378" stroke="white" stroke-width="1.25"/>
<path d="M28.7571 27.8249L32.0963 31.1641L28.7571 34.5032" stroke="white"/>
</svg>
