<svg width="11" height="11" viewBox="0 0 11 11" fill="none" xmlns="http://www.w3.org/2000/svg">
<path d="M7.08823 8.64889C7.77179 8.27802 8.30529 7.73918 8.6664 7.11144C8.76996 6.93188 8.57061 6.72984 8.38888 6.8302C8.38616 6.83167 8.38479 6.83241 8.38207 6.83389C6.86109 7.65911 4.95399 7.06791 4.17127 5.50977C3.43381 4.04163 3.9779 2.2624 5.40799 1.45477C5.426 1.44412 5.4437 1.43451 5.46246 1.42522C5.64461 1.32728 5.58352 1.05198 5.37693 1.03981C4.66107 0.999915 3.92518 1.15066 3.24622 1.51375C1.26286 2.57662 0.524274 5.03419 1.59329 7.01334C2.65893 8.98462 5.11957 9.71612 7.08823 8.64889Z" fill="#414BFF"/>
</svg>
