<svg width="31" height="32" viewBox="0 0 31 32" fill="none" xmlns="http://www.w3.org/2000/svg">
<path d="M26.7004 16.9375H14.7701V4.9856C14.7701 4.51012 14.3811 4.12109 13.9056 4.12109C6.34115 4.12109 0.203125 10.2591 0.203125 17.8236C0.203125 25.3664 6.34115 31.5045 13.884 31.5045C21.4269 31.5045 27.5649 25.3664 27.5649 17.8236C27.5865 17.3481 27.1975 16.9375 26.7004 16.9375ZM13.884 29.7538C7.31372 29.7538 1.93215 24.3939 1.93215 17.8236C1.93215 11.5343 6.81663 6.34721 13.0195 5.91495V17.8236C13.0195 18.2991 13.4085 18.6881 13.884 18.6881H25.7926C25.3604 24.8693 20.1949 29.7538 13.884 29.7538Z" fill="white"/>
<path d="M30.8717 14.4775C30.8501 11.1491 29.6398 7.95044 27.4569 5.46498C24.8417 2.52564 21.1027 0.839844 17.1692 0.839844C16.6937 0.839844 16.3047 1.22887 16.3047 1.70435V14.5207C16.3047 14.9962 16.6937 15.3852 17.1692 15.3852H29.9856C30.461 15.3852 30.8501 14.9962 30.8501 14.5207V14.4775H30.8717ZM18.0337 13.6562V2.61209C21.1459 2.82822 24.0421 4.27627 26.1169 6.63206C27.8459 8.59883 28.8833 11.0627 29.0778 13.6778H18.0337V13.6562Z" fill="white"/>
</svg>
