<svg width="37" height="31" viewBox="0 0 37 31" fill="none" xmlns="http://www.w3.org/2000/svg">
<path d="M36.8449 7.63233H35.3817V1.52637H29.2656V0.0585938H36.8449V7.63233Z" fill="white"/>
<path d="M22.6229 23.0157C17.7943 23.0157 13.8438 19.0527 13.8438 14.209C13.8438 9.36535 17.7943 5.40234 22.6229 5.40234C27.4514 5.40234 31.402 9.36535 31.402 14.209C31.402 19.0527 27.4514 23.0157 22.6229 23.0157ZM22.6229 7.16368C18.76 7.16368 15.5996 10.3341 15.5996 14.209C15.5996 18.084 18.76 21.2544 22.6229 21.2544C26.4857 21.2544 29.6461 18.084 29.6461 14.209C29.6461 10.3341 26.4857 7.16368 22.6229 7.16368Z" fill="white"/>
<path d="M23.0886 12.3908L15.1289 5.84449L16.2409 4.49414L23.1179 10.1598L35.5257 0.589844L36.6085 1.99891L23.0886 12.3908Z" fill="white"/>
<path d="M12.2847 4.62236L5.66406 10.3164L6.80693 11.6536L13.4276 5.95956L12.2847 4.62236Z" fill="white"/>
<path d="M15.1602 20.9358L7.63672 28.5L9.50114 30.366L17.0246 22.8018L15.1602 20.9358Z" fill="white"/>
<path d="M3.89412 16.2692C1.78714 16.2692 0.0898438 14.5665 0.0898438 12.4529C0.0898438 10.3393 1.78714 8.63672 3.89412 8.63672C6.00111 8.63672 7.6984 10.3393 7.6984 12.4529C7.6984 14.5665 6.00111 16.2692 3.89412 16.2692ZM3.89412 10.3981C2.75284 10.3981 1.84567 11.3081 1.84567 12.4529C1.84567 13.5978 2.75284 14.5078 3.89412 14.5078C5.03541 14.5078 5.94258 13.5978 5.94258 12.4529C5.94258 11.3081 5.03541 10.3981 3.89412 10.3981Z" fill="white"/>
<path d="M14.1916 6.57956C13.5478 6.57956 12.9333 6.40342 12.348 6.0218C12.1724 5.90438 12.0261 5.7576 11.8505 5.61082C11.2652 4.99436 10.9141 4.1724 10.9141 3.29173C10.9141 2.41106 11.2652 1.58911 11.8798 0.97264C12.4943 0.356173 13.3137 0.00390625 14.1916 0.00390625C15.0695 0.00390625 15.8889 0.356173 16.5034 0.97264C17.118 1.58911 17.4691 2.41106 17.4691 3.29173C17.4691 4.1724 17.118 4.99436 16.5034 5.61082C16.4156 5.69889 16.2986 5.78696 16.2108 5.87502C15.6255 6.34471 14.9232 6.57956 14.1916 6.57956ZM14.1916 1.76524C13.7819 1.76524 13.4015 1.91202 13.1088 2.20557C12.8162 2.49913 12.6699 2.88075 12.6699 3.29173C12.6699 3.70271 12.8162 4.08433 13.1088 4.37789C13.1674 4.4366 13.2552 4.52467 13.3429 4.55402C13.899 4.93564 14.6013 4.90629 15.128 4.49531C15.1866 4.46595 15.2158 4.40724 15.2744 4.37789C15.567 4.08433 15.7133 3.70271 15.7133 3.29173C15.7133 2.88075 15.567 2.49913 15.2744 2.20557C14.9817 1.91202 14.6013 1.76524 14.1916 1.76524Z" fill="white"/>
</svg>
