<svg width="13" height="13" viewBox="0 0 13 13" fill="none" xmlns="http://www.w3.org/2000/svg">
<g opacity="0.7">
<path d="M5.39453 2.14844L6.39453 0.148438L7.39453 2.14844H5.39453Z" fill="#414BFF"/>
<path d="M7.39453 10.1484L6.39453 12.1484L5.39453 10.1484L7.39453 10.1484Z" fill="#414BFF"/>
<path d="M9.92296 8.14901L10.4515 10.3217L8.39619 9.44089L9.92296 8.14901Z" fill="#414BFF"/>
<path d="M2.92089 3.96816L2.04072 1.9126L4.21326 2.44181L2.92089 3.96816Z" fill="#414BFF"/>
<path d="M8.3951 2.44032L10.5678 1.91182L9.68699 3.96709L8.3951 2.44032Z" fill="#414BFF"/>
<path d="M4.21425 9.4424L2.1587 10.3226L2.6879 8.15002L4.21425 9.4424Z" fill="#414BFF"/>
<path d="M10.3945 5.14844L12.3945 6.14844L10.3945 7.14844L10.3945 5.14844Z" fill="#414BFF"/>
<path d="M2.39453 7.14844L0.394531 6.14844L2.39453 5.14844L2.39453 7.14844Z" fill="#414BFF"/>
<circle cx="6.39453" cy="6.14844" r="3" fill="#414BFF"/>
</g>
</svg>
