<svg width="88" height="15" viewBox="0 0 88 15" fill="none" xmlns="http://www.w3.org/2000/svg">
<g id="cix_horizontal_white">
<g id="2">
<g id="Layer x0020 1">
<path id="Vector" fill-rule="evenodd" clip-rule="evenodd" d="M2.24897 12.1044C0.484719 9.62777 0.484719 6.26961 2.24897 3.79297L6.31084 7.94869L2.24897 12.1044Z" fill="#414BFF"/>
<path id="Vector_2" fill-rule="evenodd" clip-rule="evenodd" d="M11.8503 13.5698C9.4296 15.3748 6.14728 15.3748 3.72656 13.5698L7.78844 9.41406L11.8503 13.5698Z" fill="#28BC00"/>
<path id="Vector_3" fill-rule="evenodd" clip-rule="evenodd" d="M3.72266 2.27954C6.14337 0.474528 9.42569 0.474528 11.8464 2.27954L7.78453 6.43526L3.72266 2.27954Z" fill="#FF564E"/>
</g>
</g>
<g id="CRYPTOINDEX">
<path d="M22.602 12.2466C22.0504 12.2466 21.5611 12.1592 21.1342 11.9845C20.7074 11.8098 20.3462 11.5645 20.0506 11.2487C19.7617 10.9329 19.5417 10.5499 19.3906 10.0997C19.2396 9.64945 19.1641 9.14548 19.1641 8.58775V8.50712C19.1641 7.96283 19.2494 7.46557 19.4202 7.01536C19.5909 6.56515 19.8274 6.17877 20.1295 5.85623C20.4381 5.53368 20.7993 5.2817 21.2131 5.10027C21.6334 4.91884 22.0898 4.82812 22.5823 4.82812C22.9829 4.82812 23.3573 4.88188 23.7053 4.9894C24.06 5.09019 24.3719 5.24474 24.6412 5.45305C24.9104 5.66136 25.1272 5.92342 25.2913 6.23924C25.4621 6.55507 25.5672 6.92465 25.6066 7.34798H24.2767C24.2045 6.86417 24.0337 6.50131 23.7644 6.2594C23.4952 6.0175 23.1044 5.89654 22.5922 5.89654C22.2835 5.89654 22.0011 5.95702 21.745 6.07797C21.4954 6.19893 21.282 6.37028 21.1047 6.59202C20.9274 6.81377 20.7895 7.08592 20.691 7.40846C20.5924 7.731 20.5432 8.09386 20.5432 8.49704V8.57767C20.5432 9.39075 20.7205 10.0257 21.0751 10.4827C21.4363 10.9329 21.9453 11.158 22.602 11.158C23.0946 11.158 23.4985 11.0337 23.8137 10.7851C24.1355 10.5297 24.3325 10.1467 24.4048 9.63601H25.6854C25.6328 10.0728 25.5212 10.4558 25.3504 10.7851C25.1797 11.1076 24.9597 11.3764 24.6904 11.5914C24.4277 11.8064 24.1191 11.9711 23.7644 12.0853C23.4098 12.1928 23.0223 12.2466 22.602 12.2466Z" fill="white"/>
<path d="M26.8588 4.939H29.223C29.6105 4.939 29.9651 4.98268 30.2869 5.07003C30.6087 5.15067 30.8845 5.27834 31.1144 5.45305C31.3508 5.62104 31.5314 5.83943 31.6562 6.10821C31.7875 6.37028 31.8532 6.6861 31.8532 7.05568V7.096C31.8532 7.37822 31.8105 7.62685 31.7252 7.84187C31.6463 8.0569 31.5347 8.24505 31.3902 8.40632C31.2523 8.56087 31.0881 8.68854 30.8977 8.78934C30.7072 8.89013 30.5036 8.97077 30.2869 9.03125L32.267 12.1458H30.8484L29.0063 9.23283H28.169V12.1458H26.8588V4.939ZM29.223 8.27529C30.1162 8.27529 30.5627 7.89227 30.5627 7.12623V7.08592C30.5627 6.6693 30.4445 6.38036 30.2081 6.21909C29.9717 6.05782 29.6433 5.97718 29.223 5.97718H28.169V8.27529H29.223Z" fill="white"/>
<path d="M34.7966 9.02117L32.4619 4.939H33.91L35.496 7.92251L37.0426 4.939H38.3232L36.1166 9.03125V12.1458H34.7966V9.02117Z" fill="white"/>
<path d="M39.336 4.939H41.6017C41.9958 4.939 42.3537 4.98604 42.6755 5.08011C42.9973 5.16747 43.2698 5.30522 43.4931 5.49337C43.7229 5.6748 43.9003 5.90662 44.025 6.18885C44.1498 6.46435 44.2122 6.79025 44.2122 7.16655V7.20687C44.2122 7.58989 44.1465 7.91915 44.0152 8.19465C43.8904 8.47016 43.7131 8.69862 43.4832 8.88005C43.26 9.05476 42.9874 9.1858 42.6656 9.27315C42.3504 9.36051 42.0056 9.40418 41.6313 9.40418H40.6462V12.1458H39.336V4.939ZM41.6017 8.43656C42.0352 8.43656 42.3635 8.33241 42.5868 8.1241C42.8167 7.91579 42.9316 7.61005 42.9316 7.20687V7.16655C42.9316 6.7365 42.8134 6.43075 42.577 6.24932C42.3471 6.06789 42.022 5.97718 41.6017 5.97718H40.6462V8.43656H41.6017Z" fill="white"/>
<path d="M46.7861 5.99734H44.8257V4.939H50.0664V5.99734H48.1061V12.1458H46.7861V5.99734Z" fill="white"/>
<path d="M54.0919 11.1681C54.4269 11.1681 54.7257 11.1076 54.9884 10.9867C55.2576 10.859 55.4842 10.6809 55.6681 10.4524C55.8585 10.224 56.003 9.95183 56.1015 9.63601C56.2066 9.31347 56.2591 8.95733 56.2591 8.56759V8.48696C56.2591 8.11738 56.2099 7.77468 56.1114 7.45886C56.0129 7.14303 55.8684 6.87089 55.6779 6.64242C55.494 6.41395 55.2642 6.23589 54.9884 6.10821C54.7191 5.97382 54.4137 5.90662 54.0722 5.90662C53.7242 5.90662 53.4155 5.97046 53.1462 6.09813C52.877 6.21909 52.6471 6.3938 52.4567 6.62226C52.2662 6.85073 52.1217 7.12287 52.0232 7.4387C51.9247 7.75452 51.8755 8.1073 51.8755 8.49704V8.57767C51.8755 8.97413 51.9313 9.33027 52.0429 9.64609C52.1546 9.96191 52.3089 10.2341 52.5059 10.4625C52.7029 10.691 52.9361 10.8657 53.2053 10.9867C53.4746 11.1076 53.7701 11.1681 54.0919 11.1681ZM54.0722 12.2466C53.5337 12.2466 53.0444 12.1559 52.6044 11.9744C52.1644 11.7863 51.7901 11.5276 51.4814 11.1983C51.1728 10.8691 50.9331 10.4827 50.7623 10.0392C50.5916 9.58897 50.5062 9.10516 50.5062 8.58775V8.50712C50.5062 7.98299 50.5916 7.49581 50.7623 7.0456C50.9396 6.59538 51.1859 6.20901 51.5011 5.88646C51.8164 5.5572 52.1907 5.30186 52.6241 5.12043C53.0641 4.93228 53.5468 4.8382 54.0722 4.8382C54.5976 4.8382 55.077 4.92892 55.5105 5.11035C55.9439 5.29178 56.3149 5.54376 56.6236 5.86631C56.9388 6.18885 57.1818 6.57187 57.3526 7.01536C57.5299 7.45886 57.6186 7.94603 57.6186 8.47688V8.55751C57.6186 9.08164 57.5332 9.56881 57.3624 10.019C57.1982 10.4692 56.9585 10.859 56.6433 11.1882C56.3346 11.5175 55.9603 11.7762 55.5203 11.9644C55.0869 12.1525 54.6042 12.2466 54.0722 12.2466Z" fill="white"/>
<path d="M58.9618 4.939H60.2818V12.1458H58.9618V4.939Z" fill="white"/>
<path d="M61.9816 4.939H63.5479L66.513 10.1501V4.939H67.705V12.1458H66.3456L63.1736 6.62226V12.1458H61.9816V4.939Z" fill="white"/>
<path d="M71.4387 11.0874C72.2334 11.0874 72.8211 10.8691 73.202 10.4323C73.5829 9.98879 73.7734 9.36723 73.7734 8.56759V8.48696C73.7734 8.09722 73.7274 7.75116 73.6355 7.44878C73.5501 7.13967 73.4122 6.87761 73.2217 6.66258C73.0313 6.44755 72.7883 6.28292 72.4928 6.16869C72.1972 6.05446 71.8426 5.99734 71.4289 5.99734H70.6703V11.0874H71.4387ZM69.3602 4.939H71.4978C72.1086 4.939 72.6405 5.02635 73.0937 5.20106C73.5534 5.36905 73.9343 5.6076 74.2364 5.9167C74.5385 6.22581 74.765 6.59874 74.9161 7.03552C75.0671 7.46557 75.1427 7.94267 75.1427 8.4668V8.55751C75.1427 9.08164 75.0671 9.56545 74.9161 10.0089C74.765 10.4457 74.5385 10.822 74.2364 11.1378C73.9343 11.4537 73.5534 11.7023 73.0937 11.8837C72.634 12.0584 72.0954 12.1458 71.4781 12.1458H69.3602V4.939Z" fill="white"/>
<path d="M76.4309 4.939H80.8343V5.99734H77.7411V7.97291H80.2235V8.98085H77.7411V11.0874H81.0017V12.1458H76.4309V4.939Z" fill="white"/>
<path d="M84.0348 8.44664L81.9266 4.939H83.4043L84.9016 7.49917L86.3891 4.939H87.7387L85.6602 8.4164L87.916 12.1458H86.4187L84.7637 9.33363L83.1088 12.1458H81.769L84.0348 8.44664Z" fill="white"/>
</g>
</g>
</svg>
