<svg width="26" height="28" viewBox="0 0 26 28" fill="none" xmlns="http://www.w3.org/2000/svg">
<path d="M15.5373 21.2838C15.52 18.9688 14.6758 16.7449 13.1556 15.0177C11.3344 12.9752 8.73221 11.8053 5.99592 11.808C5.66515 11.8083 5.3948 12.0792 5.39513 12.4099L5.40403 21.3239C5.40436 21.6546 5.67526 21.9249 6.00602 21.9246L14.9215 21.9157C15.2523 21.9154 15.5226 21.6445 15.5223 21.3138L15.5223 21.2838L15.5373 21.2838ZM6.6062 20.7214L6.59853 13.04C8.76366 13.1882 10.7793 14.1933 12.2243 15.8304C13.4284 17.1971 14.1518 18.9101 14.2889 20.7288L6.60622 20.7365L6.6062 20.7214Z" fill="white"/>
<path d="M0.902344 0.871094V24.669H24.0823" stroke="white" stroke-width="1.25"/>
<path d="M22.2351 21.9099L24.8256 24.5L22.2351 27.0901" stroke="white"/>
</svg>
