<svg width="23" height="22" viewBox="0 0 23 22" fill="none" xmlns="http://www.w3.org/2000/svg">
<path d="M19.116 11.5781H10.8169V3.26535C10.8169 2.93464 10.5463 2.66406 10.2155 2.66406C4.95342 2.66406 0.683594 6.93319 0.683594 12.1944C0.683594 17.4407 4.95342 21.7098 10.2005 21.7098C15.4476 21.7098 19.7174 17.4407 19.7174 12.1944C19.7324 11.8637 19.4618 11.5781 19.116 11.5781ZM10.2005 20.4922C5.62998 20.4922 1.88636 16.7642 1.88636 12.1944C1.88636 7.82009 5.28418 4.21237 9.59911 3.91173V12.1944C9.59911 12.5251 9.86974 12.7957 10.2005 12.7957H18.4846C18.1839 17.0949 14.5906 20.4922 10.2005 20.4922Z" fill="white"/>
<path d="M22.0161 9.86418C22.0011 7.54924 21.1592 5.32448 19.6407 3.59578C17.8215 1.55141 15.2205 0.378906 12.4842 0.378906C12.1534 0.378906 11.8828 0.649485 11.8828 0.980192V9.89425C11.8828 10.225 12.1534 10.4955 12.4842 10.4955H21.3997C21.7305 10.4955 22.0011 10.225 22.0011 9.89425V9.86418H22.0161ZM13.0856 9.29296V1.61154C15.2506 1.76186 17.2652 2.76902 18.7085 4.40752C19.9113 5.77544 20.633 7.48911 20.7683 9.308H13.0856V9.29296Z" fill="white"/>
</svg>
