<svg width="25" height="22" viewBox="0 0 25 22" fill="none" xmlns="http://www.w3.org/2000/svg">
<path d="M24.9576 5.85154H23.981V1.77646H19.8984V0.796875H24.9576V5.85154Z" fill="white"/>
<path d="M15.4616 16.1144C12.2386 16.1144 9.60156 13.4695 9.60156 10.2369C9.60156 7.00426 12.2386 4.35938 15.4616 4.35938C18.6847 4.35938 21.3217 7.00426 21.3217 10.2369C21.3217 13.4695 18.6847 16.1144 15.4616 16.1144ZM15.4616 5.53488C12.8832 5.53488 10.7736 7.65079 10.7736 10.2369C10.7736 12.823 12.8832 14.9389 15.4616 14.9389C18.0401 14.9389 20.1497 12.823 20.1497 10.2369C20.1497 7.65079 18.0401 5.53488 15.4616 5.53488Z" fill="white"/>
<path d="M15.7741 9.02041L10.4609 4.65145L11.2032 3.75023L15.7936 7.53144L24.0759 1.14453L24.7986 2.08493L15.7741 9.02041Z" fill="white"/>
<path d="M8.56385 3.83421L4.14453 7.63281L4.9074 8.52489L9.32671 4.72629L8.56385 3.83421Z" fill="white"/>
<path d="M10.4829 14.729L5.46094 19.7773L6.70544 21.0227L11.7274 15.9744L10.4829 14.729Z" fill="white"/>
<path d="M2.96124 11.6056C1.55482 11.6056 0.421875 10.4692 0.421875 9.05864C0.421875 7.64804 1.55482 6.51172 2.96124 6.51172C4.36766 6.51172 5.50061 7.64804 5.50061 9.05864C5.50061 10.4692 4.36766 11.6056 2.96124 11.6056ZM2.96124 7.68722C2.19943 7.68722 1.59389 8.29457 1.59389 9.05864C1.59389 9.82272 2.19943 10.4301 2.96124 10.4301C3.72306 10.4301 4.3286 9.82272 4.3286 9.05864C4.3286 8.29457 3.72306 7.68722 2.96124 7.68722Z" fill="white"/>
<path d="M9.8362 5.14245C9.40646 5.14245 8.99626 5.0249 8.60558 4.77021C8.48838 4.69184 8.39071 4.59389 8.27351 4.49593C7.88284 4.0845 7.64844 3.53593 7.64844 2.94818C7.64844 2.36043 7.88284 1.81186 8.29305 1.40043C8.70325 0.989007 9.25019 0.753906 9.8362 0.753906C10.4222 0.753906 10.9692 0.989007 11.3794 1.40043C11.7896 1.81186 12.024 2.36043 12.024 2.94818C12.024 3.53593 11.7896 4.0845 11.3794 4.49593C11.3208 4.5547 11.2426 4.61348 11.184 4.67225C10.7933 4.98572 10.3245 5.14245 9.8362 5.14245ZM9.8362 1.92941C9.56273 1.92941 9.30879 2.02737 9.11346 2.22329C8.91812 2.4192 8.82045 2.6739 8.82045 2.94818C8.82045 3.22246 8.91812 3.47716 9.11346 3.67307C9.15253 3.71226 9.21113 3.77103 9.26973 3.79063C9.64087 4.04532 10.1097 4.02573 10.4613 3.75144C10.5003 3.73185 10.5199 3.69267 10.5589 3.67307C10.7543 3.47716 10.852 3.22246 10.852 2.94818C10.852 2.6739 10.7543 2.4192 10.5589 2.22329C10.3636 2.02737 10.1097 1.92941 9.8362 1.92941Z" fill="white"/>
</svg>
