<svg width="87" height="15" viewBox="0 0 87 15" fill="none" xmlns="http://www.w3.org/2000/svg">
<g id="cix_horizontal_white">
<g id="2">
<g id="Layer x0020 1">
<path id="Vector" fill-rule="evenodd" clip-rule="evenodd" d="M1.84731 11.8416C0.040479 9.3164 0.040479 5.89239 1.84731 3.36719L6.00723 7.6044L1.84731 11.8416Z" fill="#414BFF"/>
<path id="Vector_2" fill-rule="evenodd" clip-rule="evenodd" d="M11.6753 13.3388C9.19616 15.1792 5.83461 15.1792 3.35547 13.3388L7.51539 9.10156L11.6753 13.3388Z" fill="#28BC00"/>
<path id="Vector_3" fill-rule="evenodd" clip-rule="evenodd" d="M3.35547 1.82562C5.83461 -0.0147885 9.19616 -0.0147885 11.6753 1.82562L7.51539 6.06282L3.35547 1.82562Z" fill="#FF564E"/>
</g>
</g>
<g id="CRYPTOINDEX">
<path d="M19.5835 12.4897C19.0185 12.4897 18.5174 12.4007 18.0802 12.2225C17.6431 12.0444 17.2731 11.7943 16.9705 11.4723C16.6745 11.1503 16.4492 10.7598 16.2945 10.3007C16.1398 9.84167 16.0625 9.32782 16.0625 8.75915V8.67693C16.0625 8.12197 16.1499 7.61496 16.3248 7.15592C16.4997 6.69687 16.7418 6.30292 17.0512 5.97405C17.3673 5.64518 17.7372 5.38825 18.161 5.20326C18.5914 5.01828 19.0588 4.92578 19.5633 4.92578C19.9736 4.92578 20.3569 4.98059 20.7134 5.09022C21.0766 5.19299 21.3961 5.35057 21.6718 5.56296C21.9476 5.77536 22.1695 6.04256 22.3377 6.36458C22.5125 6.6866 22.6202 7.06342 22.6605 7.49506H21.2985C21.2246 7.00176 21.0497 6.63178 20.7739 6.38513C20.4982 6.13848 20.098 6.01516 19.5734 6.01516C19.2573 6.01516 18.968 6.07682 18.7057 6.20015C18.4502 6.32347 18.2316 6.49818 18.05 6.72428C17.8684 6.95038 17.7271 7.22786 17.6263 7.55673C17.5254 7.88559 17.4749 8.25557 17.4749 8.66666V8.74887C17.4749 9.57789 17.6565 10.2254 18.0197 10.6912C18.3896 11.1503 18.9109 11.3798 19.5835 11.3798C20.0879 11.3798 20.5015 11.2531 20.8244 10.9996C21.1539 10.7392 21.3557 10.3487 21.4297 9.82797H22.7412C22.6874 10.2733 22.5731 10.6638 22.3982 10.9996C22.2233 11.3284 21.998 11.6025 21.7223 11.8217C21.4532 12.041 21.1371 12.2088 20.7739 12.3253C20.4107 12.4349 20.0139 12.4897 19.5835 12.4897Z" fill="white"/>
<path d="M23.943 5.03883H26.3643C26.7611 5.03883 27.1243 5.08336 27.4538 5.17243C27.7834 5.25465 28.0659 5.38483 28.3013 5.56296C28.5434 5.73425 28.7284 5.95692 28.8562 6.23098C28.9907 6.49818 29.0579 6.8202 29.0579 7.19703V7.23814C29.0579 7.52589 29.0142 7.7794 28.9268 7.99864C28.8461 8.21789 28.7317 8.40973 28.5838 8.57416C28.4425 8.73174 28.2744 8.86192 28.0793 8.96469C27.8843 9.06746 27.6758 9.14968 27.4538 9.21134L29.4817 12.387H28.0289L26.1423 9.41689H25.2848V12.387H23.943V5.03883ZM26.3643 8.44056C27.279 8.44056 27.7363 8.05003 27.7363 7.26897V7.22786C27.7363 6.80307 27.6153 6.50846 27.3731 6.34402C27.131 6.17959 26.7947 6.09737 26.3643 6.09737H25.2848V8.44056H26.3643Z" fill="white"/>
<path d="M32.0723 9.20107L29.6813 5.03883H31.1644L32.7886 8.08086L34.3726 5.03883H35.6841L33.4242 9.21134V12.387H32.0723V9.20107Z" fill="white"/>
<path d="M36.7213 5.03883H39.0417C39.4453 5.03883 39.8119 5.08679 40.1414 5.18271C40.471 5.27178 40.7501 5.41223 40.9788 5.60407C41.2142 5.78906 41.3958 6.02543 41.5236 6.31319C41.6514 6.5941 41.7153 6.9264 41.7153 7.31007V7.35118C41.7153 7.74171 41.648 8.07743 41.5135 8.35834C41.3857 8.63925 41.2041 8.8722 40.9687 9.05719C40.74 9.23532 40.4609 9.36893 40.1313 9.45799C39.8085 9.54706 39.4554 9.5916 39.072 9.5916H38.0631V12.387H36.7213V5.03883ZM39.0417 8.60499C39.4857 8.60499 39.8219 8.4988 40.0506 8.2864C40.286 8.07401 40.4037 7.76227 40.4037 7.35118V7.31007C40.4037 6.87158 40.2827 6.55984 40.0405 6.37486C39.8051 6.18987 39.4722 6.09737 39.0417 6.09737H38.0631V8.60499H39.0417Z" fill="white"/>
<path d="M44.3512 6.11793H42.3436V5.03883H47.7108V6.11793H45.7031V12.387H44.3512V6.11793Z" fill="white"/>
<path d="M51.8334 11.3901C52.1765 11.3901 52.4825 11.3284 52.7515 11.2051C53.0273 11.0749 53.2593 10.8934 53.4476 10.6604C53.6427 10.4275 53.7907 10.15 53.8915 9.82797C53.9992 9.4991 54.053 9.13598 54.053 8.7386V8.65638C54.053 8.27955 54.0025 7.93013 53.9016 7.60811C53.8007 7.28609 53.6528 7.00861 53.4577 6.77566C53.2694 6.54272 53.034 6.36115 52.7515 6.23098C52.4758 6.09395 52.163 6.02543 51.8133 6.02543C51.4568 6.02543 51.1407 6.09052 50.8649 6.2207C50.5892 6.34402 50.3538 6.52216 50.1587 6.75511C49.9637 6.98806 49.8157 7.26554 49.7148 7.58756C49.6139 7.90957 49.5635 8.26927 49.5635 8.66666V8.74887C49.5635 9.15311 49.6207 9.51623 49.735 9.83825C49.8493 10.1603 50.0074 10.4377 50.2092 10.6707C50.4109 10.9036 50.6497 11.0818 50.9255 11.2051C51.2012 11.3284 51.5039 11.3901 51.8334 11.3901ZM51.8133 12.4897C51.2618 12.4897 50.7607 12.3973 50.3101 12.2123C49.8594 12.0204 49.4761 11.7566 49.1599 11.4209C48.8438 11.0852 48.5983 10.6912 48.4235 10.2391C48.2486 9.78001 48.1612 9.28671 48.1612 8.75915V8.67693C48.1612 8.14252 48.2486 7.64579 48.4235 7.18675C48.6051 6.7277 48.8573 6.33375 49.1801 6.00488C49.503 5.66916 49.8863 5.40881 50.3302 5.22382C50.7809 5.03198 51.2752 4.93606 51.8133 4.93606C52.3513 4.93606 52.8423 5.02855 53.2862 5.21354C53.7301 5.39853 54.1101 5.65546 54.4262 5.98433C54.7491 6.31319 54.9979 6.70372 55.1728 7.15592C55.3544 7.60811 55.4452 8.10484 55.4452 8.6461V8.72832C55.4452 9.26273 55.3578 9.75946 55.1829 10.2185C55.0148 10.6775 54.7693 11.0749 54.4464 11.4106C54.1303 11.7464 53.7469 12.0101 53.2963 12.202C52.8524 12.3938 52.3581 12.4897 51.8133 12.4897Z" fill="white"/>
<path d="M56.8209 5.03883H58.1728V12.387H56.8209V5.03883Z" fill="white"/>
<path d="M59.9136 5.03883H61.5177L64.5544 10.3521V5.03883H65.7751V12.387H64.3829L61.1343 6.75511V12.387H59.9136V5.03883Z" fill="white"/>
<path d="M69.599 11.3079C70.4128 11.3079 71.0147 11.0852 71.4048 10.6399C71.7949 10.1877 71.99 9.55391 71.99 8.7386V8.65638C71.99 8.259 71.9429 7.90615 71.8487 7.59783C71.7613 7.28267 71.6201 7.01546 71.425 6.79622C71.23 6.57697 70.9811 6.40911 70.6784 6.29264C70.3758 6.17617 70.0126 6.11793 69.5889 6.11793H68.812V11.3079H69.599ZM67.4702 5.03883H69.6595C70.285 5.03883 70.8298 5.1279 71.2939 5.30603C71.7647 5.47732 72.1548 5.72055 72.4642 6.03571C72.7735 6.35088 73.0056 6.73113 73.1603 7.17647C73.315 7.61496 73.3923 8.10141 73.3923 8.63582V8.72832C73.3923 9.26273 73.315 9.75603 73.1603 10.2082C73.0056 10.6536 72.7735 11.0372 72.4642 11.3593C72.1548 11.6813 71.7647 11.9348 71.2939 12.1198C70.8231 12.2979 70.2715 12.387 69.6393 12.387H67.4702V5.03883Z" fill="white"/>
<path d="M74.7116 5.03883H79.2213V6.11793H76.0534V8.13224H78.5958V9.15996H76.0534V11.3079H79.3928V12.387H74.7116V5.03883Z" fill="white"/>
<path d="M82.499 8.61527L80.34 5.03883H81.8534L83.3868 7.64922L84.9102 5.03883H86.2924L84.1637 8.58444L86.474 12.387H84.9405L83.2456 9.51966L81.5507 12.387H80.1786L82.499 8.61527Z" fill="white"/>
</g>
</g>
</svg>
