<svg width="84" height="15" viewBox="0 0 84 15" fill="none" xmlns="http://www.w3.org/2000/svg">
<g id="cix_horizontal_white">
<g id="2">
<g id="Layer x0020 1">
<path id="Vector" fill-rule="evenodd" clip-rule="evenodd" d="M2.06537 11.8271C0.301125 9.35043 0.301125 5.99227 2.06537 3.51562L6.12725 7.67135L2.06537 11.8271Z" fill="#414BFF"/>
<path id="Vector_2" fill-rule="evenodd" clip-rule="evenodd" d="M11.6628 13.2924C9.2421 15.0975 5.95978 15.0975 3.53906 13.2924L7.60094 9.13672L11.6628 13.2924Z" fill="#28BC00"/>
<path id="Vector_3" fill-rule="evenodd" clip-rule="evenodd" d="M3.53906 2.0022C5.95978 0.197185 9.2421 0.197185 11.6628 2.0022L7.60094 6.15792L3.53906 2.0022Z" fill="#FF564E"/>
</g>
</g>
<g id="CRYPTOINDEX">
<path d="M18.1802 11.067C17.6285 11.067 17.1392 10.9797 16.7124 10.8049C16.2855 10.6302 15.9243 10.385 15.6288 10.0691C15.3398 9.75331 15.1198 9.37029 14.9688 8.92006C14.8177 8.46984 14.7422 7.96586 14.7422 7.40813V7.32749C14.7422 6.78319 14.8276 6.28593 14.9983 5.83571C15.1691 5.38549 15.4055 4.9991 15.7076 4.67656C16.0162 4.35401 16.3774 4.10202 16.7912 3.92059C17.2115 3.73915 17.6679 3.64844 18.1605 3.64844C18.5611 3.64844 18.9354 3.7022 19.2835 3.80971C19.6381 3.91051 19.95 4.06506 20.2193 4.27337C20.4886 4.48168 20.7053 4.74375 20.8695 5.05958C21.0402 5.37541 21.1453 5.74499 21.1847 6.16834H19.8548C19.7826 5.68452 19.6118 5.32165 19.3426 5.07974C19.0733 4.83783 18.6826 4.71687 18.1703 4.71687C17.8617 4.71687 17.5793 4.77735 17.3231 4.89831C17.0736 5.01926 16.8601 5.19062 16.6828 5.41237C16.5055 5.63412 16.3676 5.90627 16.2691 6.22881C16.1706 6.55136 16.1213 6.91423 16.1213 7.31741V7.39805C16.1213 8.21113 16.2986 8.84615 16.6533 9.30309C17.0145 9.75331 17.5234 9.97842 18.1802 9.97842C18.6727 9.97842 19.0766 9.85411 19.3918 9.60548C19.7136 9.35013 19.9106 8.9671 19.9829 8.4564H21.2635C21.211 8.89318 21.0993 9.27621 20.9286 9.60548C20.7578 9.92802 20.5378 10.1968 20.2686 10.4118C20.0059 10.6269 19.6972 10.7915 19.3426 10.9057C18.9879 11.0133 18.6005 11.067 18.1802 11.067Z" fill="#100841"/>
<path d="M22.4369 3.75931H24.8011C25.1886 3.75931 25.5433 3.80299 25.865 3.89035C26.1868 3.97098 26.4627 4.09866 26.6925 4.27337C26.9289 4.44137 27.1095 4.65976 27.2343 4.92855C27.3657 5.19062 27.4313 5.50644 27.4313 5.87603V5.91635C27.4313 6.19857 27.3887 6.4472 27.3033 6.66224C27.2245 6.87727 27.1128 7.06542 26.9684 7.22669C26.8304 7.38125 26.6663 7.50892 26.4758 7.60972C26.2854 7.71051 26.0818 7.79115 25.865 7.85163L27.8451 10.9662H26.4266L24.5844 8.05322H23.7471V10.9662H22.4369V3.75931ZM24.8011 7.09566C25.6943 7.09566 26.1409 6.71263 26.1409 5.94658V5.90627C26.1409 5.48964 26.0227 5.20069 25.7862 5.03942C25.5498 4.87815 25.2215 4.79751 24.8011 4.79751H23.7471V7.09566H24.8011Z" fill="#100841"/>
<path d="M30.3747 7.84155L28.04 3.75931H29.4881L31.0741 6.74287L32.6207 3.75931H33.9013L31.6947 7.85163V10.9662H30.3747V7.84155Z" fill="#100841"/>
<path d="M34.9141 3.75931H37.1798C37.5739 3.75931 37.9318 3.80635 38.2536 3.90043C38.5754 3.98778 38.8479 4.12554 39.0712 4.31369C39.3011 4.49512 39.4784 4.72695 39.6032 5.00918C39.728 5.28469 39.7903 5.6106 39.7903 5.9869V6.02722C39.7903 6.41025 39.7247 6.73951 39.5933 7.01502C39.4685 7.29053 39.2912 7.519 39.0614 7.70043C38.8381 7.87515 38.5655 8.00618 38.2437 8.09354C37.9285 8.18089 37.5837 8.22457 37.2094 8.22457H36.2243V10.9662H34.9141V3.75931ZM37.1798 7.25693C37.6133 7.25693 37.9417 7.15278 38.1649 6.94446C38.3948 6.73615 38.5097 6.4304 38.5097 6.02722V5.9869C38.5097 5.55684 38.3915 5.25109 38.1551 5.06966C37.9252 4.88823 37.6002 4.79751 37.1798 4.79751H36.2243V7.25693H37.1798Z" fill="#100841"/>
<path d="M42.3642 4.81767H40.4039V3.75931H45.6446V4.81767H43.6842V10.9662H42.3642V4.81767Z" fill="#100841"/>
<path d="M49.6701 9.9885C50.005 9.9885 50.3038 9.92802 50.5665 9.80707C50.8358 9.67939 51.0623 9.50132 51.2462 9.27285C51.4367 9.04438 51.5811 8.77223 51.6797 8.4564C51.7847 8.13386 51.8373 7.77771 51.8373 7.38797V7.30733C51.8373 6.93774 51.788 6.59504 51.6895 6.27921C51.591 5.96338 51.4465 5.69123 51.2561 5.46276C51.0722 5.23429 50.8423 5.05622 50.5665 4.92855C50.2972 4.79415 49.9919 4.72695 49.6504 4.72695C49.3023 4.72695 48.9936 4.79079 48.7244 4.91847C48.4551 5.03942 48.2253 5.21413 48.0348 5.44261C47.8444 5.67108 47.6999 5.94322 47.6014 6.25905C47.5029 6.57488 47.4536 6.92766 47.4536 7.31741V7.39805C47.4536 7.79451 47.5094 8.15065 47.6211 8.46648C47.7327 8.78231 47.887 9.05446 48.0841 9.28293C48.2811 9.5114 48.5142 9.68611 48.7835 9.80707C49.0527 9.92802 49.3483 9.9885 49.6701 9.9885ZM49.6504 11.067C49.1118 11.067 48.6226 10.9763 48.1826 10.7949C47.7426 10.6067 47.3682 10.348 47.0596 10.0187C46.7509 9.68947 46.5112 9.30309 46.3404 8.85959C46.1697 8.40936 46.0843 7.92554 46.0843 7.40813V7.32749C46.0843 6.80335 46.1697 6.31617 46.3404 5.86595C46.5178 5.41573 46.764 5.02934 47.0793 4.70679C47.3945 4.37753 47.7688 4.12218 48.2023 3.94075C48.6423 3.75259 49.125 3.65852 49.6504 3.65852C50.1757 3.65852 50.6552 3.74923 51.0886 3.93067C51.522 4.1121 51.8931 4.36409 52.2018 4.68664C52.517 5.00918 52.76 5.39221 52.9307 5.83571C53.108 6.27921 53.1967 6.76639 53.1967 7.29725V7.37789C53.1967 7.90203 53.1113 8.3892 52.9406 8.83943C52.7764 9.28965 52.5367 9.67939 52.2215 10.0087C51.9128 10.3379 51.5385 10.5966 51.0984 10.7848C50.665 10.9729 50.1823 11.067 49.6504 11.067Z" fill="#100841"/>
<path d="M54.54 3.75931H55.86V10.9662H54.54V3.75931Z" fill="#100841"/>
<path d="M57.5597 3.75931H59.126L62.0912 8.97046V3.75931H63.2831V10.9662H61.9237L58.7517 5.44261V10.9662H57.5597V3.75931Z" fill="#100841"/>
<path d="M67.0169 9.90786C67.8115 9.90786 68.3993 9.68947 68.7802 9.25269C69.1611 8.80919 69.3515 8.18761 69.3515 7.38797V7.30733C69.3515 6.91758 69.3056 6.57152 69.2136 6.26913C69.1283 5.96002 68.9903 5.69795 68.7999 5.48292C68.6094 5.26789 68.3664 5.10326 68.0709 4.98902C67.7754 4.87479 67.4207 4.81767 67.007 4.81767H66.2485V9.90786H67.0169ZM64.9383 3.75931H67.076C67.6867 3.75931 68.2187 3.84667 68.6718 4.02138C69.1315 4.18938 69.5124 4.42793 69.8145 4.73703C70.1166 5.04614 70.3432 5.41909 70.4942 5.85587C70.6453 6.28593 70.7208 6.76303 70.7208 7.28717V7.37789C70.7208 7.90203 70.6453 8.38585 70.4942 8.82935C70.3432 9.26613 70.1166 9.64243 69.8145 9.95826C69.5124 10.2741 69.1315 10.5227 68.6718 10.7042C68.2121 10.8789 67.6736 10.9662 67.0563 10.9662H64.9383V3.75931Z" fill="#100841"/>
<path d="M72.0091 3.75931H76.4124V4.81767H73.3192V6.79327H75.8017V7.80123H73.3192V9.90786H76.5799V10.9662H72.0091V3.75931Z" fill="#100841"/>
<path d="M79.6129 7.26701L77.5048 3.75931H78.9824L80.4798 6.31953L81.9673 3.75931H83.3169L81.2383 7.23677L83.4942 10.9662H81.9968L80.3419 8.15401L78.6869 10.9662H77.3472L79.6129 7.26701Z" fill="#100841"/>
</g>
</g>
</svg>
