<svg width="7" height="14" viewBox="0 0 7 14" fill="none" xmlns="http://www.w3.org/2000/svg">
<path d="M0.96024 7.37263H2.2305V13.1381C2.2305 13.2514 2.31456 13.3442 2.4173 13.3442H4.57021C4.67295 13.3442 4.75701 13.2514 4.75701 13.1381V7.3984H6.21874C6.31214 7.3984 6.39153 7.32111 6.40554 7.21806L6.62504 5.0953C6.62971 5.03863 6.6157 4.9768 6.57834 4.93558C6.54098 4.89436 6.49428 4.8686 6.43823 4.8686H4.75701V3.53415C4.75701 3.13227 4.95315 2.93133 5.34077 2.93133H6.43823C6.54098 2.93133 6.62504 2.83858 6.62504 2.72523V0.772499C6.62504 0.659148 6.54098 0.566406 6.43823 0.566406H4.92046C4.91112 0.566406 4.88777 0.566406 4.85041 0.566406C4.58889 0.566406 3.67355 0.623082 2.95436 1.35471C2.15578 2.16878 2.26786 3.13742 2.29121 3.30745V4.86345H0.96024C0.857499 4.86345 0.773438 4.95619 0.773438 5.06954V7.16654C0.773438 7.27989 0.857499 7.37263 0.96024 7.37263Z" fill="white"/>
</svg>
