<svg width="13" height="13" viewBox="0 0 13 13" fill="none" xmlns="http://www.w3.org/2000/svg">
<path d="M12.006 7.77253V12.2188H9.44638V8.0734C9.44638 7.03706 9.08073 6.31831 8.14997 6.31831C7.43528 6.31831 7.01976 6.80305 6.83693 7.25436C6.77045 7.42151 6.75383 7.65552 6.75383 7.88953V12.2188H4.17762C4.17762 12.2188 4.21086 5.18169 4.17762 4.46294H6.73721V5.56613C6.73721 5.58285 6.72059 5.58285 6.72059 5.59956H6.73721V5.56613C7.08624 5.03125 7.68459 4.27907 9.04749 4.27907C10.7428 4.27907 12.006 5.38227 12.006 7.77253ZM1.48506 0.71875C0.620787 0.71875 0.0390625 1.30378 0.0390625 2.05596C0.0390625 2.80814 0.604167 3.39317 1.45182 3.39317H1.46844C2.36596 3.39317 2.91444 2.79142 2.91444 2.05596C2.91444 1.30378 2.36596 0.71875 1.48506 0.71875ZM0.188649 12.2188H2.74824V4.46294H0.188649V12.2188Z" fill="white"/>
</svg>
