<svg width="238" height="36" viewBox="0 0 238 36" fill="none" xmlns="http://www.w3.org/2000/svg">
<g id="cix_horizontal_white">
<g id="2">
<g id="Layer x0020 1">
<path id="Vector" fill-rule="evenodd" clip-rule="evenodd" d="M3.8312 28.1765C-0.974983 22.0177 -0.974983 13.6667 3.8312 7.50781L14.8966 17.8422L3.8312 28.1765Z" fill="#414BFF"/>
<path id="Vector_2" fill-rule="evenodd" clip-rule="evenodd" d="M29.9863 31.8304C23.3917 36.3191 14.45 36.3191 7.85547 31.8304L18.9209 21.4961L29.9863 31.8304Z" fill="#28BC00"/>
<path id="Vector_3" fill-rule="evenodd" clip-rule="evenodd" d="M7.85547 3.7493C14.45 -0.739349 23.3917 -0.739349 29.9863 3.7493L18.9209 14.0836L7.85547 3.7493Z" fill="#FF564E"/>
</g>
</g>
<g id="CRYPTOINDEX">
<path d="M59.2886 26.0459C57.7856 26.0459 56.4526 25.8287 55.2896 25.3942C54.1266 24.9597 53.1425 24.3498 52.3374 23.5644C51.5501 22.779 50.9507 21.8265 50.5392 20.7069C50.1276 19.5873 49.9219 18.3341 49.9219 16.9471V16.7466C49.9219 15.393 50.1545 14.1565 50.6197 13.0369C51.0849 11.9173 51.729 10.9564 52.5521 10.1543C53.393 9.35224 54.3771 8.72561 55.5043 8.27443C56.6494 7.82325 57.8929 7.59766 59.2349 7.59766C60.3263 7.59766 61.3462 7.73134 62.2945 7.99871C63.2607 8.24936 64.1106 8.6337 64.8441 9.15172C65.5777 9.66974 66.1682 10.3214 66.6155 11.1068C67.0807 11.8922 67.367 12.8113 67.4743 13.864H63.8511C63.6543 12.6609 63.1891 11.7585 62.4555 11.157C61.7219 10.5554 60.6573 10.2546 59.2617 10.2546C58.4208 10.2546 57.6514 10.405 56.9536 10.7058C56.2737 11.0066 55.6922 11.4327 55.2091 11.9841C54.726 12.5356 54.3502 13.2123 54.0819 14.0144C53.8135 14.8165 53.6793 15.7189 53.6793 16.7215V16.922C53.6793 18.944 54.1624 20.5231 55.1286 21.6594C56.1126 22.779 57.4993 23.3388 59.2886 23.3388C60.6305 23.3388 61.7309 23.0297 62.5897 22.4114C63.4664 21.7764 64.0032 20.8239 64.2 19.5539H67.689C67.5459 20.6401 67.2417 21.5926 66.7765 22.4114C66.3113 23.2135 65.7119 23.8819 64.9783 24.4166C64.2626 24.9514 63.4217 25.3608 62.4555 25.6448C61.4893 25.9122 60.4337 26.0459 59.2886 26.0459Z" fill="#100841"/>
<path d="M70.886 7.87338H77.3272C78.3829 7.87338 79.3491 7.982 80.2258 8.19923C81.1025 8.39975 81.854 8.71725 82.4803 9.15172C83.1244 9.56948 83.6164 10.1126 83.9564 10.781C84.3142 11.4327 84.4932 12.2181 84.4932 13.1371V13.2374C84.4932 13.9392 84.3769 14.5575 84.1443 15.0923C83.9295 15.627 83.6254 16.0949 83.2317 16.4959C82.856 16.8803 82.4087 17.1978 81.8898 17.4484C81.3709 17.6991 80.8163 17.8996 80.2258 18.05L85.6204 25.7952H81.7556L76.7368 18.5513H74.4555V25.7952H70.886V7.87338ZM77.3272 16.1701C79.7606 16.1701 80.9773 15.2176 80.9773 13.3126V13.2123C80.9773 12.1763 80.6552 11.4578 80.0111 11.0567C79.367 10.6557 78.4724 10.4551 77.3272 10.4551H74.4555V16.1701H77.3272Z" fill="#100841"/>
<path d="M92.5122 18.0249L86.1515 7.87338H90.0968L94.4178 15.2928L98.6314 7.87338H102.12L96.1086 18.05V25.7952H92.5122V18.0249Z" fill="#100841"/>
<path d="M104.88 7.87338H111.053C112.126 7.87338 113.101 7.99035 113.978 8.2243C114.855 8.44153 115.597 8.78409 116.206 9.25198C116.832 9.70316 117.315 10.2797 117.655 10.9815C117.995 11.6666 118.165 12.4771 118.165 13.4129V13.5131C118.165 14.4656 117.986 15.2844 117.628 15.9695C117.288 16.6547 116.805 17.2228 116.179 17.674C115.571 18.1085 114.828 18.4343 113.951 18.6516C113.092 18.8688 112.153 18.9774 111.133 18.9774H108.449V25.7952H104.88V7.87338ZM111.053 16.5711C112.234 16.5711 113.128 16.3121 113.737 15.7941C114.363 15.2761 114.676 14.5157 114.676 13.5131V13.4129C114.676 12.3434 114.354 11.5831 113.71 11.1319C113.083 10.6807 112.198 10.4551 111.053 10.4551H108.449V16.5711H111.053Z" fill="#100841"/>
<path d="M125.177 10.5053H119.836V7.87338H134.115V10.5053H128.774V25.7952H125.177V10.5053Z" fill="#100841"/>
<path d="M145.082 23.3639C145.994 23.3639 146.809 23.2135 147.524 22.9127C148.258 22.5952 148.875 22.1524 149.376 21.5842C149.895 21.0161 150.289 20.3393 150.557 19.5539C150.843 18.7518 150.986 17.8662 150.986 16.897V16.6964C150.986 15.7774 150.852 14.9252 150.584 14.1398C150.315 13.3544 149.922 12.6776 149.403 12.1095C148.902 11.5413 148.276 11.0985 147.524 10.781C146.791 10.4468 145.959 10.2797 145.028 10.2797C144.08 10.2797 143.239 10.4384 142.505 10.7559C141.772 11.0567 141.146 11.4912 140.627 12.0593C140.108 12.6275 139.714 13.3042 139.446 14.0896C139.177 14.875 139.043 15.7523 139.043 16.7215V16.922C139.043 17.908 139.195 18.7936 139.5 19.579C139.804 20.3644 140.224 21.0411 140.761 21.6093C141.298 22.1774 141.933 22.6119 142.666 22.9127C143.4 23.2135 144.205 23.3639 145.082 23.3639ZM145.028 26.0459C143.561 26.0459 142.228 25.8203 141.029 25.3691C139.831 24.9012 138.811 24.2579 137.97 23.4391C137.129 22.6203 136.476 21.6594 136.011 20.5565C135.545 19.4369 135.313 18.2338 135.313 16.9471V16.7466C135.313 15.4432 135.545 14.2317 136.011 13.1121C136.494 11.9925 137.165 11.0316 138.023 10.2295C138.882 9.41073 139.902 8.77574 141.083 8.32456C142.282 7.85667 143.597 7.62272 145.028 7.62272C146.46 7.62272 147.766 7.84831 148.947 8.29949C150.128 8.75067 151.139 9.37731 151.979 10.1794C152.838 10.9815 153.5 11.934 153.966 13.0369C154.449 14.1398 154.69 15.3513 154.69 16.6714V16.8719C154.69 18.1753 154.458 19.3868 153.992 20.5064C153.545 21.626 152.892 22.5952 152.033 23.414C151.192 24.2328 150.172 24.8762 148.974 25.3441C147.793 25.812 146.478 26.0459 145.028 26.0459Z" fill="#100841"/>
<path d="M158.35 7.87338H161.946V25.7952H158.35V7.87338Z" fill="#100841"/>
<path d="M166.577 7.87338H170.844L178.923 20.8323V7.87338H182.17V25.7952H178.467L169.825 12.0593V25.7952H166.577V7.87338Z" fill="#100841"/>
<path d="M192.343 23.1634C194.508 23.1634 196.109 22.6203 197.147 21.5341C198.185 20.4312 198.704 18.8855 198.704 16.897V16.6964C198.704 15.7272 198.578 14.8667 198.328 14.1147C198.095 13.346 197.72 12.6943 197.201 12.1596C196.682 11.6249 196.02 11.2155 195.215 10.9314C194.409 10.6473 193.443 10.5053 192.316 10.5053H190.249V23.1634H192.343ZM186.68 7.87338H192.504C194.168 7.87338 195.617 8.09061 196.852 8.52508C198.104 8.94284 199.142 9.53606 199.965 10.3047C200.788 11.0734 201.405 12.0008 201.817 13.087C202.228 14.1565 202.434 15.3429 202.434 16.6463V16.8719C202.434 18.1753 202.228 19.3785 201.817 20.4813C201.405 21.5675 200.788 22.5033 199.965 23.2887C199.142 24.0741 198.104 24.6924 196.852 25.1435C195.599 25.578 194.132 25.7952 192.45 25.7952H186.68V7.87338Z" fill="#100841"/>
<path d="M205.944 7.87338H217.941V10.5053H209.513V15.4181H216.277V17.9247H209.513V23.1634H218.397V25.7952H205.944V7.87338Z" fill="#100841"/>
<path d="M226.66 16.5962L220.917 7.87338H224.943L229.022 14.24L233.075 7.87338H236.752L231.089 16.521L237.235 25.7952H233.155L228.646 18.802L224.138 25.7952H220.488L226.66 16.5962Z" fill="#100841"/>
</g>
</g>
</svg>
