<svg width="221" height="36" viewBox="0 0 221 36" fill="none" xmlns="http://www.w3.org/2000/svg">
<g id="cix_horizontal_white">
<g id="2">
<g id="Layer x0020 1">
<path id="Vector" fill-rule="evenodd" clip-rule="evenodd" d="M4.34208 28.5984C-0.119234 22.4396 -0.119234 14.0886 4.34208 7.92969L14.6135 18.2641L4.34208 28.5984Z" fill="#414BFF"/>
<path id="Vector_2" fill-rule="evenodd" clip-rule="evenodd" d="M28.617 32.2523C22.4957 36.741 14.1956 36.741 8.07422 32.2523L18.3456 21.918L28.617 32.2523Z" fill="#28BC00"/>
<path id="Vector_3" fill-rule="evenodd" clip-rule="evenodd" d="M8.07422 4.17118C14.1956 -0.317478 22.4957 -0.317478 28.617 4.17118L18.3456 14.5055L8.07422 4.17118Z" fill="#FF564E"/>
</g>
</g>
<g id="CRYPTOINDEX">
<path d="M55.8196 26.4678C54.4244 26.4678 53.1871 26.2505 52.1076 25.8161C51.028 25.3816 50.1145 24.7717 49.3672 23.9863C48.6364 23.2009 48.08 22.2484 47.698 21.1288C47.316 20.0092 47.125 18.7559 47.125 17.369V17.1685C47.125 15.8149 47.3409 14.5783 47.7727 13.4588C48.2046 12.3392 48.8025 11.3783 49.5665 10.5762C50.3471 9.77412 51.2605 9.14748 52.3069 8.6963C53.3698 8.24512 54.5241 8.01953 55.7697 8.01953C56.7829 8.01953 57.7295 8.15321 58.6098 8.42058C59.5067 8.67124 60.2956 9.05557 60.9765 9.5736C61.6575 10.0916 62.2055 10.7433 62.6208 11.5287C63.0526 12.3141 63.3183 13.2332 63.418 14.2859H60.0547C59.872 13.0828 59.4402 12.1804 58.7593 11.5788C58.0783 10.9773 57.0901 10.6765 55.7947 10.6765C55.0141 10.6765 54.2999 10.8269 53.6522 11.1277C53.021 11.4284 52.4813 11.8546 52.0328 12.406C51.5844 12.9574 51.2356 13.6342 50.9865 14.4363C50.7374 15.2384 50.6128 16.1408 50.6128 17.1434V17.3439C50.6128 19.3659 51.0612 20.945 51.9581 22.0813C52.8715 23.2009 54.1587 23.7607 55.8196 23.7607C57.0652 23.7607 58.0866 23.4515 58.8838 22.8333C59.6977 22.1983 60.1959 21.2458 60.3786 19.9758H63.6173C63.4844 21.062 63.2021 22.0145 62.7702 22.8333C62.3384 23.6354 61.782 24.3038 61.1011 24.8385C60.4367 25.3732 59.6561 25.7826 58.7593 26.0667C57.8624 26.3341 56.8825 26.4678 55.8196 26.4678Z" fill="white"/>
<path d="M66.5848 8.29525H72.5639C73.5438 8.29525 74.4406 8.40387 75.2545 8.6211C76.0683 8.82163 76.7658 9.13913 77.3471 9.5736C77.945 9.99135 78.4018 10.5344 78.7173 11.2029C79.0495 11.8546 79.2156 12.6399 79.2156 13.559V13.6593C79.2156 14.3611 79.1076 14.9794 78.8917 15.5141C78.6924 16.0489 78.4101 16.5167 78.0447 16.9178C77.6959 17.3021 77.2807 17.6196 76.7991 17.8703C76.3174 18.1209 75.8025 18.3215 75.2545 18.4719L80.2619 26.2171H76.6745L72.0158 18.9732H69.8982V26.2171H66.5848V8.29525ZM72.5639 16.5919C74.8226 16.5919 75.952 15.6395 75.952 13.7345V13.6342C75.952 12.5982 75.6531 11.8796 75.0552 11.4786C74.4573 11.0775 73.6268 10.877 72.5639 10.877H69.8982V16.5919H72.5639Z" fill="white"/>
<path d="M86.6593 18.4468L80.7549 8.29525H84.4171L88.4281 15.7147L92.3394 8.29525H95.578L89.9976 18.4719V26.2171H86.6593V18.4468Z" fill="white"/>
<path d="M98.1394 8.29525H103.869C104.866 8.29525 105.771 8.41223 106.585 8.64617C107.399 8.8634 108.088 9.20597 108.653 9.67386C109.234 10.125 109.682 10.7015 109.998 11.4034C110.313 12.0885 110.471 12.899 110.471 13.8347V13.935C110.471 14.8875 110.305 15.7063 109.973 16.3914C109.657 17.0765 109.209 17.6447 108.628 18.0959C108.063 18.5303 107.374 18.8562 106.56 19.0734C105.763 19.2907 104.891 19.3993 103.944 19.3993H101.453V26.2171H98.1394V8.29525ZM103.869 16.993C104.965 16.993 105.796 16.734 106.361 16.216C106.942 15.6979 107.233 14.9376 107.233 13.935V13.8347C107.233 12.7653 106.934 12.005 106.336 11.5538C105.754 11.1026 104.932 10.877 103.869 10.877H101.453V16.993H103.869Z" fill="white"/>
<path d="M116.98 10.9271H112.023V8.29525H125.276V10.9271H120.319V26.2171H116.98V10.9271Z" fill="white"/>
<path d="M135.457 23.7858C136.304 23.7858 137.06 23.6354 137.724 23.3346C138.405 23.0171 138.978 22.5743 139.443 22.0061C139.924 21.4379 140.29 20.7612 140.539 19.9758C140.805 19.1737 140.938 18.288 140.938 17.3188V17.1183C140.938 16.1993 140.813 15.347 140.564 14.5616C140.315 13.7762 139.949 13.0995 139.468 12.5313C139.003 11.9632 138.421 11.5204 137.724 11.2029C137.043 10.8686 136.271 10.7015 135.407 10.7015C134.527 10.7015 133.746 10.8603 133.065 11.1778C132.384 11.4786 131.803 11.913 131.321 12.4812C130.84 13.0493 130.474 13.7261 130.225 14.5115C129.976 15.2969 129.851 16.1742 129.851 17.1434V17.3439C129.851 18.3298 129.993 19.2155 130.275 20.0009C130.557 20.7862 130.948 21.463 131.446 22.0312C131.944 22.5993 132.534 23.0338 133.215 23.3346C133.896 23.6354 134.643 23.7858 135.457 23.7858ZM135.407 26.4678C134.045 26.4678 132.808 26.2422 131.695 25.791C130.582 25.3231 129.636 24.6798 128.855 23.8609C128.074 23.0421 127.468 22.0813 127.036 20.9784C126.604 19.8588 126.389 18.6557 126.389 17.369V17.1685C126.389 15.865 126.604 14.6535 127.036 13.5339C127.485 12.4144 128.108 11.4535 128.905 10.6514C129.702 9.8326 130.649 9.19761 131.745 8.74643C132.858 8.27854 134.078 8.0446 135.407 8.0446C136.736 8.0446 137.948 8.27019 139.044 8.72137C140.14 9.17255 141.079 9.79918 141.859 10.6013C142.657 11.4034 143.271 12.3559 143.703 13.4588C144.151 14.5616 144.376 15.7731 144.376 17.0933V17.2938C144.376 18.5972 144.16 19.8087 143.728 20.9283C143.313 22.0479 142.706 23.0171 141.909 23.8359C141.129 24.6547 140.182 25.298 139.069 25.7659C137.973 26.2338 136.752 26.4678 135.407 26.4678Z" fill="white"/>
<path d="M147.773 8.29525H151.111V26.2171H147.773V8.29525Z" fill="white"/>
<path d="M155.41 8.29525H159.371L166.869 21.2541V8.29525H169.884V26.2171H166.446L158.424 12.4812V26.2171H155.41V8.29525Z" fill="white"/>
<path d="M179.326 23.5852C181.336 23.5852 182.823 23.0421 183.786 21.956C184.749 20.8531 185.231 19.3074 185.231 17.3188V17.1183C185.231 16.1491 185.115 15.2885 184.882 14.5366C184.666 13.7679 184.317 13.1162 183.836 12.5815C183.354 12.0467 182.74 11.6373 181.992 11.3532C181.245 11.0692 180.348 10.9271 179.302 10.9271H177.383V23.5852H179.326ZM174.07 8.29525H179.476C181.021 8.29525 182.366 8.51249 183.512 8.94696C184.674 9.36472 185.638 9.95793 186.402 10.7266C187.166 11.4953 187.739 12.4227 188.121 13.5089C188.503 14.5783 188.694 15.7648 188.694 17.0682V17.2938C188.694 18.5972 188.503 19.8003 188.121 20.9032C187.739 21.9894 187.166 22.9252 186.402 23.7106C185.638 24.4959 184.674 25.1142 183.512 25.5654C182.349 25.9999 180.987 26.2171 179.426 26.2171H174.07V8.29525Z" fill="white"/>
<path d="M191.952 8.29525H203.088V10.9271H195.265V15.84H201.543V18.3465H195.265V23.5852H203.511V26.2171H191.952V8.29525Z" fill="white"/>
<path d="M211.182 17.0181L205.85 8.29525H209.587L213.374 14.6619L217.136 8.29525H220.549L215.292 16.9429L220.997 26.2171H217.21L213.025 19.2238L208.84 26.2171H205.452L211.182 17.0181Z" fill="white"/>
</g>
</g>
</svg>
