<svg width="13" height="12" viewBox="0 0 13 12" fill="none" xmlns="http://www.w3.org/2000/svg">
<path d="M0.387408 5.73107L3.27669 6.82296L4.39478 10.4696C4.46793 10.7029 4.75007 10.7877 4.93293 10.634L6.54215 9.30355C6.70934 9.16574 6.94968 9.15514 7.12732 9.28765L10.0323 11.429C10.2308 11.5774 10.513 11.4661 10.5652 11.2223L12.7021 0.838793C12.7544 0.568472 12.4984 0.345854 12.2476 0.446562L0.387408 5.08442C0.0948224 5.20103 0.0948224 5.61976 0.387408 5.73107ZM4.21714 6.23991L9.86509 2.70984C9.96436 2.64623 10.0689 2.78404 9.98526 2.86885L5.32479 7.26289C5.16282 7.4166 5.0531 7.62332 5.02698 7.85124L4.87024 9.04383C4.84934 9.20284 4.6299 9.21874 4.58288 9.06503L3.97158 6.88656C3.89843 6.64274 4.00293 6.37772 4.21714 6.23991Z" fill="white"/>
</svg>
