<svg width="15" height="9" viewBox="0 0 15 9" fill="none" xmlns="http://www.w3.org/2000/svg">
<path fill-rule="evenodd" clip-rule="evenodd" d="M12.1358 5.90687C12.5999 6.37281 13.087 6.80927 13.4995 7.3224C13.6829 7.55242 13.8548 7.78244 13.9866 8.04785C14.1757 8.42533 14.0038 8.83819 13.6772 8.85588H11.643C11.1158 8.90307 10.7032 8.68484 10.348 8.31326C10.0672 8.01836 9.80361 7.70577 9.5343 7.39907C9.42542 7.27521 9.30509 7.15725 9.16757 7.06288C8.89253 6.88004 8.65186 6.93313 8.49142 7.23392C8.33098 7.53472 8.29087 7.87091 8.27941 8.213C8.25649 8.70843 8.11323 8.83229 7.63191 8.85588C6.60622 8.90307 5.6321 8.74382 4.72102 8.213C3.92454 7.74116 3.30569 7.08058 2.76133 6.32563C1.71272 4.86292 0.910507 3.25276 0.182785 1.60131C0.0338025 1.22973 0.154134 1.0292 0.549511 1.0233C1.2142 1.01151 1.87889 1.01151 2.54358 1.0233C2.8129 1.0292 2.99053 1.18845 3.09367 1.44796C3.45467 2.35626 3.89016 3.21737 4.44024 4.0195C4.58923 4.23183 4.73821 4.44416 4.95022 4.59751C5.18516 4.76265 5.36279 4.70957 5.47739 4.43826C5.54615 4.26722 5.58053 4.08438 5.59199 3.90154C5.64356 3.27045 5.64929 2.63936 5.55761 2.00827C5.50031 1.6131 5.2883 1.35949 4.90438 1.28871C4.70956 1.25332 4.73821 1.17665 4.83562 1.06459C4.99606 0.869952 5.15078 0.746094 5.4602 0.746094H7.75797C8.11896 0.81687 8.19919 0.987913 8.25076 1.35949V3.98411C8.24503 4.13156 8.31952 4.56212 8.57737 4.65649C8.77792 4.72726 8.91545 4.55622 9.03578 4.42646C9.58587 3.82486 9.97551 3.1171 10.3308 2.37985C10.4855 2.05546 10.623 1.71927 10.7491 1.38308C10.8465 1.13536 10.9955 1.01151 11.2705 1.0174H13.4823C13.5454 1.0174 13.6141 1.0174 13.6772 1.0292C14.0496 1.09408 14.1528 1.25922 14.0382 1.6367C13.8548 2.2265 13.5053 2.71604 13.1614 3.20557C12.7947 3.7305 12.3993 4.23773 12.0326 4.76855C11.6888 5.24629 11.7175 5.48811 12.1358 5.90687Z" fill="white"/>
</svg>
