<svg width="1446" height="202" viewBox="0 0 1446 202" fill="none" xmlns="http://www.w3.org/2000/svg">
<mask id="mask0" mask-type="alpha" maskUnits="userSpaceOnUse" x="0" y="0" width="1466" height="202">
<rect x="0.742188" y="0.460938" width="1465.26" height="201.176" fill="#C4C4C4"/>
</mask>
<g mask="url(#mask0)">
<path opacity="0.2" d="M367.347 171.841C360.118 167.816 354.182 167.808 352.117 168.307C343.658 167.978 317.708 143.627 296.307 147.385L184.605 175.289L186.841 535.334L1546.98 355.069L1755.24 -266.978L1713.86 -299.695C1682.27 -309.858 1659.07 -260.345 1651.44 -241.888C1643.81 -223.431 1645.36 -189.393 1639.79 -177.365C1634.21 -165.337 1633.38 -140.217 1594.13 -141.411C1554.89 -142.605 1534.51 -153.104 1524.19 -149.424C1515.94 -146.479 1507.27 -117.185 1503.96 -102.906C1502.09 -96.1992 1498.39 -79.3331 1498.56 -65.5201C1498.77 -48.2538 1468.63 -29.423 1454.18 -25.9294C1439.72 -22.4358 1457.64 3.53791 1452.03 23.6571C1446.41 43.7763 1413 21.5457 1389.51 20.0077C1366.02 18.4698 1324.47 35.729 1294.07 32.9769C1263.66 30.2248 1271.57 55.7331 1260.21 58.4781C1248.85 61.2231 1238.79 56.441 1232.34 65.2157C1225.89 73.9904 1218.71 80.0538 1208.59 70.9552C1198.47 61.8566 1197.71 83.689 1176.39 90.2851C1155.07 96.8812 1160.33 75.4063 1145.88 78.8999L1124.2 84.1403C1121.1 84.8889 1109.64 79.0007 1107.68 88.133C1105.72 97.2652 1098.59 78.7848 1084.59 63.4069C1070.6 48.029 1038.13 45.776 1031.93 47.2733C1025.74 48.7705 1025.54 60.3646 1016.25 62.6105C1006.96 64.8563 976.187 60.7486 967.928 62.7449C959.67 64.7412 958.637 64.9908 953.273 77.8326C947.909 90.6743 943.152 68.7339 932.829 71.2294C922.505 73.7248 904.753 89.5611 892.567 80.9615C880.381 72.362 877.082 84.7047 867.588 98.5446C858.095 112.385 852.316 119.554 829.711 133.677C826.72 143.059 808.957 130.035 790.939 124.288C776.525 119.691 761.845 134.688 756.308 142.761C750.752 149.396 734.509 160.73 713.981 152.993C688.322 143.321 693.803 167.972 682.085 169.362C670.367 170.751 670.623 163.474 652.605 157.727C634.586 151.98 602.945 161.072 582.862 155.824C562.78 150.577 559.693 180.186 553.967 191.672C548.242 203.158 543.644 194.167 522.529 189.169C515.355 195.233 512.152 187.348 502.339 175.289C492.527 163.229 494.857 184.313 478.595 181.028C462.333 177.743 460.833 168.004 451.541 170.25C442.25 172.496 440.962 180.023 425.733 176.489C410.503 172.954 407.715 170.742 393.155 165.602C378.596 160.463 376.382 176.873 367.347 171.841Z" fill="url(#paint0_linear)" fill-opacity="0.1" stroke="url(#paint1_radial)" stroke-opacity="0.8" stroke-width="1.5"/>
<path opacity="0.2" d="M765.538 194.868C758.309 190.843 752.373 190.835 750.308 191.334C741.85 191.005 715.9 166.655 694.499 170.412L582.796 198.316L585.032 558.361L1945.17 378.097L2153.43 -243.951L2112.05 -276.668C2080.46 -286.83 2057.26 -237.318 2049.63 -218.861C2042 -200.403 2043.56 -166.366 2037.98 -154.338C2032.4 -142.31 2031.57 -117.19 1992.33 -118.384C1953.08 -119.578 1932.7 -130.077 1922.38 -126.396C1914.13 -123.452 1905.46 -94.1573 1902.15 -79.8782C1900.28 -73.1718 1896.58 -56.3058 1896.75 -42.4928C1896.96 -25.2265 1866.82 -6.39569 1852.37 -2.90208C1837.91 0.591518 1855.84 26.5653 1850.22 46.6845C1844.6 66.8037 1811.19 44.5731 1787.7 43.0351C1764.21 41.4971 1722.66 58.7563 1692.26 56.0043C1661.85 53.2522 1669.76 78.7604 1658.4 81.5054C1647.05 84.2504 1636.98 79.4684 1630.53 88.2431C1624.08 97.0178 1616.91 103.081 1606.78 93.9826C1596.66 84.884 1595.9 106.716 1574.58 113.312C1553.26 119.909 1558.52 98.4336 1544.07 101.927L1522.39 107.168C1519.29 107.916 1507.83 102.028 1505.87 111.16C1503.91 120.293 1496.78 101.812 1482.79 86.4342C1468.79 71.0564 1436.32 68.8033 1430.13 70.3006C1423.93 71.7979 1423.73 83.3919 1414.44 85.6378C1405.15 87.8837 1374.38 83.7759 1366.12 85.7722C1357.86 87.7686 1356.83 88.0182 1351.46 100.86C1346.1 113.702 1341.34 91.7613 1331.02 94.2567C1320.7 96.7521 1302.94 112.588 1290.76 103.989C1278.57 95.3894 1275.27 107.732 1265.78 121.572C1256.29 135.412 1250.51 142.581 1227.9 156.704C1224.91 166.086 1207.15 153.062 1189.13 147.316C1174.72 142.718 1160.04 157.716 1154.5 165.789C1148.94 172.423 1132.7 183.758 1112.17 176.02C1086.51 166.348 1091.99 191 1080.28 192.389C1068.56 193.778 1068.81 186.501 1050.8 180.754C1032.78 175.008 1001.14 184.099 981.054 178.852C960.971 173.604 957.885 203.213 952.159 214.699C946.433 226.185 941.835 217.195 920.72 212.197C913.547 218.26 910.343 210.376 900.531 198.316C890.718 186.257 893.049 207.34 876.787 204.055C860.525 200.771 859.024 191.031 849.733 193.277C840.442 195.523 839.154 203.05 823.924 199.516C808.694 195.982 805.906 193.769 791.347 188.63C776.787 183.49 774.574 199.9 765.538 194.868Z" fill="url(#paint2_linear)" fill-opacity="0.1" stroke="url(#paint3_radial)" stroke-opacity="0.8" stroke-width="1.5"/>
</g>
<defs>
<linearGradient id="paint0_linear" x1="1015.66" y1="30.2656" x2="1001.99" y2="341.424" gradientUnits="userSpaceOnUse">
<stop stop-color="#414BFF"/>
<stop offset="1" stop-color="white" stop-opacity="0.06"/>
</linearGradient>
<radialGradient id="paint1_radial" cx="0" cy="0" r="1" gradientUnits="userSpaceOnUse" gradientTransform="translate(983.781 181.91) rotate(-178.099) scale(785.069 2048.96)">
<stop offset="0.281768" stop-color="#100841"/>
<stop offset="0.81206" stop-color="#100841" stop-opacity="0.09"/>
</radialGradient>
<linearGradient id="paint2_linear" x1="1413.85" y1="53.293" x2="1400.18" y2="364.451" gradientUnits="userSpaceOnUse">
<stop stop-color="#414BFF"/>
<stop offset="1" stop-color="white" stop-opacity="0.06"/>
</linearGradient>
<radialGradient id="paint3_radial" cx="0" cy="0" r="1" gradientUnits="userSpaceOnUse" gradientTransform="translate(1381.97 204.937) rotate(-178.099) scale(785.069 2048.96)">
<stop offset="0.281768" stop-color="#100841"/>
<stop offset="0.81206" stop-color="#100841" stop-opacity="0.09"/>
</radialGradient>
</defs>
</svg>
